<svg width="21" height="22" viewBox="0 0 21 22" fill="none" xmlns="http://www.w3.org/2000/svg">
<path d="M21 0.749986V15.25C20.9999 15.3862 20.9626 15.5197 20.8924 15.6363C20.8221 15.753 20.7213 15.8483 20.601 15.912C20.217 16.116 19.818 15.877 19.462 15.664L19.459 15.662C19.369 15.608 19.282 15.555 19.198 15.512C18.552 15.1826 17.8837 14.8989 17.198 14.663C15.46 14.056 12.877 13.44 9.495 13.412C9.49822 13.4412 9.49989 13.4706 9.5 13.5C9.5 15.779 9.99401 17.779 10.406 19.047C10.774 20.178 9.968 21.5 8.674 21.5H6.661C5.965 21.5 5.301 21.08 5.061 20.371C4.684 19.255 4 16.811 4 13.75V13.293C2.72156 12.932 1.61698 12.1204 0.89036 11.0083C0.163743 9.8962 -0.135806 8.55867 0.0470626 7.24288C0.229931 5.92708 0.882857 4.72193 1.8852 3.85011C2.88754 2.97828 4.17156 2.49871 5.5 2.49999H9.25C12.755 2.49999 15.425 1.88999 17.205 1.28999C17.8902 1.06248 18.5591 0.788512 19.207 0.469986C19.3729 0.3876 19.5363 0.300227 19.697 0.207986C19.745 0.179986 19.792 0.152986 19.839 0.122986C19.9522 0.0492424 20.0831 0.00738624 20.2181 0.0018267C20.3531 -0.00373285 20.487 0.02721 20.6059 0.0913955C20.7247 0.155581 20.8241 0.250633 20.8934 0.366538C20.9628 0.482444 20.9996 0.614911 21 0.749986ZM9.5 11.912C13.064 11.941 15.813 12.59 17.693 13.247C18.43 13.505 19.033 13.764 19.5 13.987V1.99299C19.033 2.20899 18.427 2.45999 17.685 2.71099C15.807 3.34499 13.061 3.97099 9.5 3.99899V11.912ZM5.5 3.99999C4.43914 3.99999 3.42172 4.42141 2.67158 5.17156C1.92143 5.9217 1.5 6.93912 1.5 7.99999C1.5 9.06085 1.92143 10.0783 2.67158 10.8284C3.42172 11.5786 4.43914 12 5.5 12H8V3.99999H5.5ZM5.5 13.75C5.5 16.597 6.138 18.873 6.482 19.891C6.5 19.942 6.556 20 6.661 20H8.674C8.761 20 8.85301 19.957 8.92301 19.853C8.95798 19.8039 8.98129 19.7475 8.99116 19.6881C9.00104 19.6286 8.99722 19.5677 8.98 19.51C8.537 18.148 8 15.986 8 13.5H5.5V13.75Z" fill="#0D1821"/>
</svg>
