<svg width="22" height="18" viewBox="0 0 22 18" fill="none" xmlns="http://www.w3.org/2000/svg">
<path d="M3.979 6.685C1.993 5.891 1 5.494 1 5C1 4.506 1.993 4.11 3.979 3.315L6.787 2.192C8.773 1.397 9.767 1 11 1C12.234 1 13.227 1.397 15.213 2.192L18.021 3.315C20.007 4.109 21 4.506 21 5C21 5.494 20.007 5.89 18.021 6.685L15.213 7.808C13.227 8.604 12.233 9 11 9C9.766 9 8.773 8.603 6.787 7.809L3.98 6.684L3.979 6.685Z" stroke="#0D1821" stroke-width="1.5"/>
<path d="M4.766 7L3.979 7.315C1.993 8.109 1 8.507 1 9C1 9.493 1.993 9.89 3.979 10.685L6.787 11.808C8.773 12.604 9.767 13 11 13C12.234 13 13.227 12.603 15.213 11.809L18.021 10.685C20.007 9.891 21 9.493 21 9C21 8.507 20.007 8.11 18.021 7.315L17.234 7" stroke="#0D1821" stroke-width="1.5"/>
<path d="M4.766 11L3.979 11.315C1.993 12.109 1 12.507 1 13C1 13.494 1.993 13.89 3.979 14.685L6.787 15.808C8.773 16.604 9.767 17 11 17C12.234 17 13.227 16.603 15.213 15.808L18.021 14.685C20.007 13.891 21 13.494 21 13C21 12.507 20.007 12.11 18.021 11.315L17.234 11" stroke="#0D1821" stroke-width="1.5"/>
</svg>
