<svg width="48" height="48" viewBox="0 0 48 48" fill="none" xmlns="http://www.w3.org/2000/svg">
<rect x="0.5" y="0.5" width="47" height="47" rx="3.5" stroke="#BFBFBF"/>
<path d="M35.2 9.59998H12.8C11.04 9.59998 9.6 11.04 9.6 12.8V35.2C9.6 36.9616 11.04 38.4 12.8 38.4H24V27.2H20.8V23.24H24V19.96C24 16.4976 25.9392 14.0656 30.0256 14.0656L32.9104 14.0688V18.2368H30.9952C29.4048 18.2368 28.8 19.4304 28.8 20.5376V23.2416H32.9088L32 27.2H28.8V38.4H35.2C36.96 38.4 38.4 36.9616 38.4 35.2V12.8C38.4 11.04 36.96 9.59998 35.2 9.59998Z" fill="#BFBFBF"/>
</svg>
