<svg width="24" height="24" viewBox="0 0 24 24" fill="none" xmlns="http://www.w3.org/2000/svg">
<path d="M7.20086 7.19922C7.20086 7.04009 7.26408 6.88748 7.3766 6.77496C7.48912 6.66243 7.64173 6.59922 7.80086 6.59922H11.4009C11.56 6.59922 11.7126 6.66243 11.8251 6.77496C11.9376 6.88748 12.0009 7.04009 12.0009 7.19922C12.0009 7.35835 11.9376 7.51096 11.8251 7.62348C11.7126 7.73601 11.56 7.79922 11.4009 7.79922H7.80086C7.64173 7.79922 7.48912 7.73601 7.3766 7.62348C7.26408 7.51096 7.20086 7.35835 7.20086 7.19922ZM7.80086 8.99922C7.64173 8.99922 7.48912 9.06243 7.3766 9.17496C7.26408 9.28748 7.20086 9.44009 7.20086 9.59922C7.20086 9.75835 7.26408 9.91096 7.3766 10.0235C7.48912 10.136 7.64173 10.1992 7.80086 10.1992H10.2009C10.36 10.1992 10.5126 10.136 10.6251 10.0235C10.7376 9.91096 10.8009 9.75835 10.8009 9.59922C10.8009 9.44009 10.7376 9.28748 10.6251 9.17496C10.5126 9.06243 10.36 8.99922 10.2009 8.99922H7.80086ZM9.60086 1.19922C8.35172 1.1988 7.12396 1.52337 6.03822 2.14104C4.95248 2.7587 4.04611 3.64822 3.40817 4.72218C2.77024 5.79614 2.42268 7.01759 2.39966 8.26652C2.37664 9.51545 2.67894 10.7489 3.27686 11.8456L2.42486 14.8336C2.39488 14.9385 2.39408 15.0497 2.42255 15.155C2.45102 15.2603 2.50768 15.3559 2.58642 15.4315C2.66517 15.507 2.76303 15.5596 2.86946 15.5837C2.9759 15.6078 3.08688 15.6023 3.19046 15.568L5.99606 14.6332C6.95229 15.1858 8.02283 15.511 9.12484 15.5836C10.2269 15.6563 11.3308 15.4744 12.3513 15.0522C13.3718 14.6299 14.2815 13.9786 15.01 13.1485C15.7385 12.3184 16.2662 11.3319 16.5525 10.2652C16.8387 9.19854 16.8757 8.08032 16.6606 6.99706C16.4455 5.9138 15.9841 4.89453 15.3121 4.01812C14.6401 3.1417 13.7755 2.43162 12.7851 1.94282C11.7948 1.45402 10.7053 1.19959 9.60086 1.19922ZM3.60086 8.39922C3.60106 7.06794 4.044 5.77454 4.85996 4.72263C5.67591 3.67072 6.81854 2.92005 8.10795 2.58881C9.39735 2.25756 10.7603 2.36455 11.9822 2.89292C13.2042 3.4213 14.2157 4.34106 14.8575 5.5074C15.4993 6.67374 15.735 8.02042 15.5275 9.33542C15.32 10.6504 14.681 11.8591 13.7112 12.7711C12.7414 13.6831 11.4958 14.2466 10.1705 14.373C8.84526 14.4994 7.51559 14.1815 6.39086 13.4692C6.31563 13.4215 6.23072 13.3912 6.1423 13.3804C6.05387 13.3696 5.96416 13.3786 5.87966 13.4068L3.89006 14.0704L4.50206 11.9332C4.52436 11.8545 4.53033 11.7721 4.5196 11.691C4.50887 11.6099 4.48166 11.5318 4.43966 11.4616C3.88869 10.5353 3.59884 9.47703 3.60086 8.39922ZM14.7321 17.9356L11.8497 16.4956C12.3777 16.348 12.8853 16.1512 13.3653 15.91L15.0009 16.7284L20.4009 14.0284V13.1992C20.4009 12.881 20.2744 12.5757 20.0494 12.3507C19.8243 12.1256 19.5191 11.9992 19.2009 11.9992H17.1921C17.3757 11.6152 17.5293 11.2132 17.6529 10.7992H19.2009C19.8374 10.7992 20.4478 11.0521 20.8979 11.5022C21.348 11.9523 21.6009 12.5627 21.6009 13.1992V19.1992C21.6009 19.8357 21.348 20.4462 20.8979 20.8963C20.4478 21.3464 19.8374 21.5992 19.2009 21.5992H10.8009C10.1643 21.5992 9.55389 21.3464 9.10381 20.8963C8.65372 20.4462 8.40086 19.8357 8.40086 19.1992V16.7152C8.79326 16.7704 9.19286 16.7992 9.60086 16.7992V19.1992C9.60086 19.5175 9.72729 19.8227 9.95233 20.0477C10.1774 20.2728 10.4826 20.3992 10.8009 20.3992H19.2009C19.5191 20.3992 19.8243 20.2728 20.0494 20.0477C20.2744 19.8227 20.4009 19.5175 20.4009 19.1992V15.37L15.2697 17.9356C15.1862 17.9774 15.0942 17.9992 15.0009 17.9992C14.9075 17.9992 14.8155 17.9774 14.7321 17.9356Z" fill="#0D1821"/>
</svg>
