<svg width="48" height="48" viewBox="0 0 48 48" fill="none" xmlns="http://www.w3.org/2000/svg">
<rect x="0.5" y="0.5" width="47" height="47" rx="3.5" stroke="#BFBFBF"/>
<path d="M24.0011 11.5C20.6064 11.5 20.1803 11.5149 18.847 11.5755C17.5163 11.6365 16.6079 11.8471 15.8131 12.1562C14.9909 12.4755 14.2935 12.9026 13.5988 13.5976C12.9034 14.2925 12.4763 14.9899 12.156 15.8117C11.846 16.6068 11.6351 17.5155 11.5752 18.8456C11.5156 20.179 11.5 20.6053 11.5 24.0001C11.5 27.395 11.515 27.8197 11.5755 29.153C11.6368 30.4837 11.8474 31.3921 12.1562 32.1869C12.4757 33.0091 12.9029 33.7065 13.5979 34.4013C14.2925 35.0966 14.9899 35.5247 15.8115 35.844C16.6069 36.1531 17.5154 36.3637 18.8459 36.4247C20.1792 36.4854 20.605 36.5002 23.9996 36.5002C27.3948 36.5002 27.8195 36.4854 29.1528 36.4247C30.4835 36.3637 31.3929 36.1531 32.1882 35.844C33.0101 35.5247 33.7065 35.0966 34.401 34.4013C35.0964 33.7065 35.5234 33.0091 35.8438 32.1873C36.151 31.3921 36.362 30.4835 36.4245 29.1532C36.4844 27.82 36.5 27.395 36.5 24.0001C36.5 20.6053 36.4844 20.1792 36.4245 18.8459C36.362 17.5151 36.151 16.6069 35.8438 15.8121C35.5234 14.9899 35.0964 14.2925 34.401 13.5976C33.7057 12.9024 33.0104 12.4752 32.1875 12.1564C31.3906 11.8471 30.4817 11.6364 29.151 11.5755C27.8176 11.5149 27.3931 11.5 23.9972 11.5H24.0011ZM22.8798 13.7526C23.2126 13.7521 23.584 13.7526 24.0011 13.7526C27.3388 13.7526 27.7342 13.7646 29.0522 13.8245C30.271 13.8802 30.9325 14.0839 31.3731 14.255C31.9565 14.4815 32.3724 14.7524 32.8096 15.19C33.2471 15.6275 33.5179 16.0441 33.745 16.6275C33.9161 17.0675 34.12 17.729 34.1755 18.9478C34.2354 20.2655 34.2484 20.6612 34.2484 23.9972C34.2484 27.3333 34.2354 27.7291 34.1755 29.0467C34.1198 30.2655 33.9161 30.927 33.745 31.3671C33.5185 31.9505 33.2471 32.3659 32.8096 32.8031C32.3721 33.2406 31.9568 33.5114 31.3731 33.738C30.933 33.9099 30.271 34.113 29.0522 34.1688C27.7345 34.2286 27.3388 34.2416 24.0011 34.2416C20.6634 34.2416 20.2677 34.2286 18.9501 34.1688C17.7314 34.1125 17.0699 33.9089 16.6289 33.7377C16.0456 33.5111 15.6289 33.2404 15.1914 32.8029C14.7539 32.3654 14.4831 31.9498 14.256 31.3661C14.0849 30.926 13.881 30.2645 13.8255 29.0457C13.7656 27.728 13.7536 27.3323 13.7536 23.9941C13.7536 20.6561 13.7656 20.2624 13.8255 18.9446C13.8812 17.7259 14.0849 17.0644 14.256 16.6237C14.4826 16.0404 14.7539 15.6238 15.1915 15.1863C15.629 14.7488 16.0456 14.4779 16.629 14.2509C17.0696 14.079 17.7314 13.8759 18.9501 13.8199C20.1032 13.7677 20.5501 13.7521 22.8798 13.7495V13.7526ZM30.6736 15.8281C29.8455 15.8281 29.1736 16.4994 29.1736 17.3276C29.1736 18.1558 29.8455 18.8276 30.6736 18.8276C31.5018 18.8276 32.1736 18.1558 32.1736 17.3276C32.1736 16.4995 31.5018 15.8276 30.6736 15.8276V15.8281ZM24.0011 17.5808C20.4561 17.5808 17.5819 20.455 17.5819 24.0001C17.5819 27.5452 20.4561 30.4181 24.0011 30.4181C27.5462 30.4181 30.4195 27.5452 30.4195 24.0001C30.4195 20.4551 27.546 17.5808 24.0009 17.5808H24.0011ZM24.0011 19.8334C26.3022 19.8334 28.1679 21.6988 28.1679 24.0001C28.1679 26.3013 26.3022 28.1669 24.0011 28.1669C21.6999 28.1669 19.8345 26.3013 19.8345 24.0001C19.8345 21.6988 21.6999 19.8334 24.0011 19.8334Z" fill="white"/>
<path d="M25.3707 10.668C26.3436 10.6643 27.3166 10.6741 28.2893 10.6974L28.548 10.7067C28.8467 10.7174 29.1413 10.7307 29.4973 10.7467C30.916 10.8134 31.884 11.0374 32.7333 11.3667C33.6133 11.7054 34.3547 12.164 35.096 12.9054C35.7738 13.5715 36.2984 14.3773 36.6333 15.2667C36.9627 16.116 37.1867 17.0854 37.2533 18.504C37.2693 18.8587 37.2827 19.1547 37.2933 19.4534L37.3013 19.712C37.325 20.6843 37.3352 21.6568 37.332 22.6294L37.3333 23.624V25.3707C37.3366 26.3437 37.3264 27.3167 37.3027 28.2894L37.2947 28.548C37.284 28.8467 37.2707 29.1414 37.2547 29.4974C37.188 30.916 36.9613 31.884 36.6333 32.7334C36.2995 33.6237 35.7748 34.4302 35.096 35.096C34.4293 35.7738 33.6231 36.2984 32.7333 36.6334C31.884 36.9627 30.916 37.1867 29.4973 37.2534C29.1413 37.2694 28.8467 37.2827 28.548 37.2934L28.2893 37.3014C27.3166 37.3251 26.3436 37.3353 25.3707 37.332L24.376 37.3334H22.6307C21.6577 37.3366 20.6847 37.3264 19.712 37.3027L19.4533 37.2947C19.1368 37.2832 18.8204 37.2699 18.504 37.2547C17.0853 37.188 16.1173 36.9614 15.2667 36.6334C14.3769 36.2992 13.571 35.7745 12.9053 35.096C12.2267 34.4297 11.7016 33.6234 11.3667 32.7334C11.0373 31.884 10.8133 30.916 10.7467 29.4974C10.7318 29.181 10.7185 28.8645 10.7067 28.548L10.7 28.2894C10.6754 27.3167 10.6643 26.3437 10.6667 25.3707V22.6294C10.6629 21.6568 10.6727 20.6843 10.696 19.712L10.7053 19.4534C10.716 19.1547 10.7293 18.8587 10.7453 18.504C10.812 17.084 11.036 16.1174 11.3653 15.2667C11.7005 14.3768 12.2266 13.5713 12.9067 12.9067C13.5719 12.2277 14.3773 11.7021 15.2667 11.3667C16.1173 11.0374 17.084 10.8134 18.504 10.7467L19.4533 10.7067L19.712 10.7C20.6842 10.6755 21.6568 10.6643 22.6293 10.6667L25.3707 10.668ZM24 17.3347C23.1167 17.3222 22.2397 17.4854 21.42 17.8148C20.6003 18.1442 19.8542 18.6332 19.2251 19.2534C18.5961 19.8737 18.0965 20.6127 17.7556 21.4277C17.4146 22.2427 17.2391 23.1173 17.2391 24.0007C17.2391 24.8841 17.4146 25.7587 17.7556 26.5737C18.0965 27.3886 18.5961 28.1277 19.2251 28.748C19.8542 29.3682 20.6003 29.8572 21.42 30.1866C22.2397 30.516 23.1167 30.6792 24 30.6667C25.7681 30.6667 27.4638 29.9643 28.714 28.7141C29.9643 27.4638 30.6667 25.7681 30.6667 24C30.6667 22.2319 29.9643 20.5362 28.714 19.286C27.4638 18.0357 25.7681 17.3347 24 17.3347ZM24 20.0014C24.5313 19.9916 25.0593 20.0878 25.5531 20.2843C26.0468 20.4808 26.4964 20.7738 26.8757 21.1461C27.255 21.5184 27.5562 21.9625 27.7619 22.4525C27.9676 22.9425 28.0736 23.4686 28.0737 24C28.0738 24.5314 27.968 25.0576 27.7624 25.5476C27.5569 26.0377 27.2558 26.4819 26.8766 26.8543C26.4975 27.2267 26.048 27.5199 25.5543 27.7166C25.0606 27.9133 24.5327 28.0096 24.0013 28C22.9405 28 21.923 27.5786 21.1729 26.8285C20.4228 26.0783 20.0013 25.0609 20.0013 24C20.0013 22.9392 20.4228 21.9217 21.1729 21.1716C21.923 20.4214 22.9405 20 24.0013 20L24 20.0014ZM31 15.3347C30.5699 15.3519 30.1631 15.5349 29.8648 15.8453C29.5665 16.1557 29.4 16.5695 29.4 17C29.4 17.4305 29.5665 17.8443 29.8648 18.1547C30.1631 18.4652 30.5699 18.6481 31 18.6654C31.442 18.6654 31.8659 18.4898 32.1785 18.1772C32.4911 17.8646 32.6667 17.4407 32.6667 16.9987C32.6667 16.5567 32.4911 16.1327 32.1785 15.8202C31.8659 15.5076 31.442 15.332 31 15.332V15.3347Z" fill="#BFBFBF"/>
</svg>
