<svg width="24" height="24" viewBox="0 0 24 24" fill="none" xmlns="http://www.w3.org/2000/svg">
<path d="M12.0008 2.625C9.45478 2.625 9.13519 2.63616 8.13525 2.68163C7.13719 2.72738 6.45591 2.88534 5.85984 3.11719C5.24316 3.35662 4.72013 3.67697 4.19906 4.19822C3.67753 4.71937 3.35719 5.24241 3.117 5.85881C2.8845 6.45506 2.72634 7.13662 2.68144 8.13422C2.63672 9.13425 2.625 9.45394 2.625 12.0001C2.625 14.5463 2.63625 14.8648 2.68163 15.8647C2.72756 16.8628 2.88553 17.5441 3.11719 18.1402C3.35681 18.7568 3.67716 19.2799 4.19841 19.8009C4.71938 20.3225 5.24241 20.6436 5.85862 20.883C6.45516 21.1148 7.13653 21.2728 8.13441 21.3186C9.13444 21.364 9.45375 21.3752 11.9997 21.3752C14.5461 21.3752 14.8646 21.364 15.8646 21.3186C16.8626 21.2728 17.5447 21.1148 18.1412 20.883C18.7576 20.6436 19.2799 20.3225 19.8007 19.8009C20.3223 19.2799 20.6425 18.7568 20.8828 18.1404C21.1133 17.5441 21.2715 16.8626 21.3184 15.8649C21.3633 14.865 21.375 14.5463 21.375 12.0001C21.375 9.45394 21.3633 9.13444 21.3184 8.13441C21.2715 7.13634 21.1133 6.45516 20.8828 5.85909C20.6425 5.24241 20.3223 4.71937 19.8007 4.19822C19.2793 3.67678 18.7578 3.35644 18.1406 3.11728C17.543 2.88534 16.8613 2.72728 15.8632 2.68163C14.8632 2.63616 14.5448 2.625 11.9979 2.625H12.0008ZM11.1598 4.31447C11.4095 4.31409 11.688 4.31447 12.0008 4.31447C14.5041 4.31447 14.8007 4.32347 15.7892 4.36838C16.7032 4.41019 17.1994 4.56291 17.5298 4.69125C17.9674 4.86112 18.2793 5.06428 18.6072 5.3925C18.9353 5.72062 19.1384 6.03309 19.3088 6.47062C19.4371 6.80062 19.59 7.29675 19.6316 8.21081C19.6765 9.19913 19.6863 9.49594 19.6863 11.9979C19.6863 14.4999 19.6765 14.7968 19.6316 15.7851C19.5898 16.6991 19.4371 17.1952 19.3088 17.5253C19.1389 17.9629 18.9353 18.2744 18.6072 18.6023C18.2791 18.9305 17.9676 19.1335 17.5298 19.3035C17.1997 19.4324 16.7032 19.5848 15.7892 19.6266C14.8009 19.6715 14.5041 19.6812 12.0008 19.6812C9.49753 19.6812 9.20081 19.6715 8.21259 19.6266C7.29853 19.5844 6.80241 19.4317 6.47166 19.3033C6.03422 19.1333 5.72166 18.9303 5.39353 18.6022C5.06541 18.274 4.86234 17.9623 4.692 17.5246C4.56366 17.1945 4.41075 16.6984 4.36913 15.7843C4.32422 14.796 4.31522 14.4992 4.31522 11.9956C4.31522 9.49209 4.32422 9.19678 4.36913 8.20847C4.41094 7.29441 4.56366 6.79828 4.692 6.46781C4.86197 6.03028 5.06541 5.71781 5.39363 5.38969C5.72175 5.06156 6.03422 4.85841 6.47175 4.68816C6.80222 4.55925 7.29853 4.40691 8.21259 4.36491C9.07744 4.32581 9.41259 4.31409 11.1598 4.31212V4.31447ZM17.0052 5.87109C16.3841 5.87109 15.8802 6.37453 15.8802 6.99572C15.8802 7.61681 16.3841 8.12072 17.0052 8.12072C17.6263 8.12072 18.1302 7.61681 18.1302 6.99572C18.1302 6.37463 17.6263 5.87072 17.0052 5.87072V5.87109ZM12.0008 7.18556C9.34209 7.18556 7.18641 9.34125 7.18641 12.0001C7.18641 14.6589 9.34209 16.8136 12.0008 16.8136C14.6597 16.8136 16.8146 14.6589 16.8146 12.0001C16.8146 9.34134 14.6595 7.18556 12.0007 7.18556H12.0008ZM12.0008 8.87503C13.7267 8.87503 15.1259 10.2741 15.1259 12.0001C15.1259 13.7259 13.7267 15.1252 12.0008 15.1252C10.2749 15.1252 8.87588 13.7259 8.87588 12.0001C8.87588 10.2741 10.2749 8.87503 12.0008 8.87503Z" fill="white"/>
<path d="M13.028 2.001C13.7577 1.9982 14.4875 2.00554 15.217 2.023L15.411 2.03C15.635 2.038 15.856 2.048 16.123 2.06C17.187 2.11 17.913 2.278 18.55 2.525C19.21 2.779 19.766 3.123 20.322 3.679C20.8304 4.17861 21.2238 4.78295 21.475 5.45C21.722 6.087 21.89 6.814 21.94 7.878C21.952 8.144 21.962 8.366 21.97 8.59L21.976 8.784C21.9938 9.51319 22.0014 10.2426 21.999 10.972L22 11.718V13.028C22.0025 13.7577 21.9948 14.4875 21.977 15.217L21.971 15.411C21.963 15.635 21.953 15.856 21.941 16.123C21.891 17.187 21.721 17.913 21.475 18.55C21.2246 19.2178 20.8311 19.8226 20.322 20.322C19.822 20.8303 19.2173 21.2238 18.55 21.475C17.913 21.722 17.187 21.89 16.123 21.94C15.856 21.952 15.635 21.962 15.411 21.97L15.217 21.976C14.4875 21.9938 13.7577 22.0014 13.028 21.999L12.282 22H10.973C10.2433 22.0025 9.51352 21.9948 8.784 21.977L8.59 21.971C8.35261 21.9624 8.11527 21.9524 7.878 21.941C6.814 21.891 6.088 21.721 5.45 21.475C4.78268 21.2243 4.17823 20.8308 3.679 20.322C3.17004 19.8223 2.77622 19.2176 2.525 18.55C2.278 17.913 2.11 17.187 2.06 16.123C2.04886 15.8857 2.03886 15.6484 2.03 15.411L2.025 15.217C2.00656 14.4875 1.99823 13.7577 2 13.028V10.972C1.99721 10.2426 2.00454 9.5132 2.022 8.784L2.029 8.59C2.037 8.366 2.047 8.144 2.059 7.878C2.109 6.813 2.277 6.088 2.524 5.45C2.77537 4.78262 3.16996 4.17845 3.68 3.68C4.17889 3.17075 4.78296 2.77657 5.45 2.525C6.088 2.278 6.813 2.11 7.878 2.06L8.59 2.03L8.784 2.025C9.51318 2.00657 10.2426 1.99824 10.972 2L13.028 2.001ZM12 7.001C11.3375 6.99163 10.6798 7.11403 10.065 7.36107C9.45019 7.60811 8.89064 7.97488 8.41884 8.44006C7.94704 8.90523 7.5724 9.45954 7.31668 10.0708C7.06097 10.682 6.92929 11.3379 6.92929 12.0005C6.92929 12.6631 7.06097 13.319 7.31668 13.9302C7.5724 14.5415 7.94704 15.0958 8.41884 15.5609C8.89064 16.0261 9.45019 16.3929 10.065 16.6399C10.6798 16.887 11.3375 17.0094 12 17C13.3261 17 14.5978 16.4732 15.5355 15.5355C16.4732 14.5979 17 13.3261 17 12C17 10.6739 16.4732 9.40215 15.5355 8.46447C14.5978 7.52679 13.3261 7.001 12 7.001ZM12 9.001C12.3985 8.99366 12.7945 9.0658 13.1648 9.21321C13.5351 9.36062 13.8723 9.58034 14.1568 9.85955C14.4412 10.1387 14.6672 10.4718 14.8214 10.8393C14.9757 11.2069 15.0552 11.6014 15.0553 12C15.0553 12.3986 14.976 12.7932 14.8218 13.1607C14.6677 13.5283 14.4418 13.8614 14.1575 14.1407C13.8731 14.42 13.536 14.6399 13.1657 14.7874C12.7955 14.9349 12.3995 15.0072 12.001 15C11.2053 15 10.4423 14.6839 9.87968 14.1213C9.31707 13.5587 9.001 12.7957 9.001 12C9.001 11.2044 9.31707 10.4413 9.87968 9.87868C10.4423 9.31607 11.2053 9 12.001 9L12 9.001ZM17.25 5.501C16.9274 5.51391 16.6223 5.65115 16.3986 5.88397C16.1749 6.11679 16.05 6.42714 16.05 6.75C16.05 7.07287 16.1749 7.38321 16.3986 7.61603C16.6223 7.84885 16.9274 7.98609 17.25 7.999C17.5815 7.999 17.8995 7.86731 18.1339 7.63288C18.3683 7.39846 18.5 7.08052 18.5 6.749C18.5 6.41748 18.3683 6.09954 18.1339 5.86512C17.8995 5.6307 17.5815 5.499 17.25 5.499V5.501Z" fill="#053559"/>
</svg>
