<svg width="28" height="28" viewBox="0 0 28 28" fill="none" xmlns="http://www.w3.org/2000/svg">
<path d="M14 0.666992C21.364 0.666992 27.3333 6.63633 27.3333 14.0003C27.3333 21.3643 21.364 27.3337 14 27.3337C11.8429 27.3365 9.71768 26.8139 7.80797 25.811L2.08797 27.3003C1.89685 27.3501 1.69603 27.3491 1.50543 27.2973C1.31482 27.2456 1.14105 27.1449 1.00132 27.0054C0.861603 26.8658 0.760784 26.6921 0.70886 26.5015C0.656937 26.311 0.655711 26.1102 0.705305 25.919L2.19331 20.2003C1.18771 18.2886 0.663666 16.1604 0.666639 14.0003C0.666639 6.63633 6.63597 0.666992 14 0.666992ZM15.6693 15.3337H9.66664L9.53064 15.343C9.29129 15.3759 9.07196 15.4944 8.91319 15.6765C8.75442 15.8586 8.66695 16.0921 8.66695 16.3337C8.66695 16.5753 8.75442 16.8087 8.91319 16.9908C9.07196 17.1729 9.29129 17.2914 9.53064 17.3243L9.66664 17.3337H15.6693L15.804 17.3243C16.0433 17.2914 16.2627 17.1729 16.4214 16.9908C16.5802 16.8087 16.6677 16.5753 16.6677 16.3337C16.6677 16.0921 16.5802 15.8586 16.4214 15.6765C16.2627 15.4944 16.0433 15.3759 15.804 15.343L15.6693 15.3337ZM18.3333 10.667H9.66664L9.53064 10.6763C9.29129 10.7093 9.07196 10.8277 8.91319 11.0098C8.75442 11.192 8.66695 11.4254 8.66695 11.667C8.66695 11.9086 8.75442 12.142 8.91319 12.3241C9.07196 12.5063 9.29129 12.6247 9.53064 12.6577L9.66664 12.667H18.3333L18.4693 12.6577C18.7087 12.6247 18.928 12.5063 19.0868 12.3241C19.2455 12.142 19.333 11.9086 19.333 11.667C19.333 11.4254 19.2455 11.192 19.0868 11.0098C18.928 10.8277 18.7087 10.7093 18.4693 10.6763L18.3333 10.667Z" fill="#053559"/>
</svg>
