<svg width="24" height="29" viewBox="0 0 24 29" fill="none" xmlns="http://www.w3.org/2000/svg">
<path d="M24 23.3337V24.667H0V23.3337L2.66667 20.667V12.667C2.66667 8.53366 5.37333 4.89366 9.33333 3.72033V3.33366C9.33333 2.62641 9.61429 1.94814 10.1144 1.44804C10.6145 0.947944 11.2928 0.666992 12 0.666992C12.7072 0.666992 13.3855 0.947944 13.8856 1.44804C14.3857 1.94814 14.6667 2.62641 14.6667 3.33366V3.72033C18.6267 4.89366 21.3333 8.53366 21.3333 12.667V20.667L24 23.3337ZM14.6667 26.0003C14.6667 26.7076 14.3857 27.3858 13.8856 27.8859C13.3855 28.386 12.7072 28.667 12 28.667C11.2928 28.667 10.6145 28.386 10.1144 27.8859C9.61429 27.3858 9.33333 26.7076 9.33333 26.0003" fill="#053559"/>
</svg>
