<svg width="14" height="14" viewBox="0 0 14 14" fill="none" xmlns="http://www.w3.org/2000/svg">
<path d="M13 13L10.1047 10.1047M10.1047 10.1047C10.5999 9.60941 10.9928 9.02145 11.2608 8.37436C11.5289 7.72728 11.6668 7.03373 11.6668 6.33333C11.6668 5.63293 11.5289 4.93939 11.2608 4.2923C10.9928 3.64522 10.5999 3.05726 10.1047 2.562C9.60942 2.06674 9.02147 1.67388 8.37438 1.40585C7.72729 1.13782 7.03375 0.999863 6.33335 0.999863C5.63295 0.999863 4.9394 1.13782 4.29232 1.40585C3.64523 1.67388 3.05727 2.06674 2.56202 2.562C1.5618 3.56222 0.999878 4.91881 0.999878 6.33333C0.999878 7.74786 1.5618 9.10445 2.56202 10.1047C3.56224 11.1049 4.91882 11.6668 6.33335 11.6668C7.74787 11.6668 9.10446 11.1049 10.1047 10.1047Z" stroke="white" stroke-width="1.5" stroke-linecap="round" stroke-linejoin="round"/>
</svg>
