<svg width="48" height="48" viewBox="0 0 48 48" fill="none" xmlns="http://www.w3.org/2000/svg">
<rect x="0.5" y="0.5" width="47" height="47" rx="3.5" stroke="#BFBFBF"/>
<path d="M30.1867 15.76C29.2752 14.7195 28.773 13.3832 28.7733 12H24.6533V28.5333C24.6216 29.428 24.2438 30.2755 23.5997 30.8973C22.9556 31.519 22.0953 31.8665 21.2 31.8667C19.3067 31.8667 17.7333 30.32 17.7333 28.4C17.7333 26.1067 19.9467 24.3867 22.2267 25.0933V20.88C17.6267 20.2667 13.6 23.84 13.6 28.4C13.6 32.84 17.28 36 21.1867 36C25.3733 36 28.7733 32.6 28.7733 28.4V20.0133C30.444 21.2131 32.4498 21.8569 34.5067 21.8533V17.7333C34.5067 17.7333 32 17.8533 30.1867 15.76Z" fill="#BFBFBF"/>
</svg>
