<svg width="48" height="48" viewBox="0 0 48 48" fill="none" xmlns="http://www.w3.org/2000/svg">
<rect x="0.5" y="0.5" width="47" height="47" rx="3.5" stroke="#BFBFBF"/>
<path d="M38.6667 20.9473C38.7326 19.0388 38.3153 17.1446 37.4534 15.4406C36.8686 14.7414 36.057 14.2695 35.16 14.1073C31.4501 13.7706 27.7247 13.6326 24 13.6939C20.2889 13.6299 16.577 13.7634 12.88 14.0939C12.1491 14.2269 11.4727 14.5697 10.9334 15.0806C9.73336 16.1873 9.60003 18.0806 9.4667 19.6806C9.27325 22.5573 9.27325 25.4438 9.4667 28.3206C9.50527 29.2211 9.63936 30.115 9.8667 30.9873C10.0275 31.6607 10.3527 32.2837 10.8134 32.8006C11.3564 33.3385 12.0485 33.7009 12.8 33.8406C15.6746 34.1954 18.571 34.3425 21.4667 34.2806C26.1334 34.3473 30.2267 34.2806 35.0667 33.9073C35.8366 33.7761 36.5483 33.4133 37.1067 32.8673C37.48 32.4938 37.7588 32.0367 37.92 31.5339C38.3969 30.0707 38.6311 28.5394 38.6134 27.0006C38.6667 26.2539 38.6667 21.7473 38.6667 20.9473ZM20.9867 27.8006V19.5473L28.88 23.6939C26.6667 24.9206 23.7467 26.3073 20.9867 27.8006Z" fill="#BFBFBF"/>
</svg>
