<svg width="22" height="16" viewBox="0 0 22 16" fill="none" xmlns="http://www.w3.org/2000/svg">
<path d="M22 5.71047C22.0495 4.27913 21.7365 2.85849 21.09 1.58047C20.6514 1.05607 20.0427 0.702182 19.37 0.580472C16.5875 0.327998 13.7936 0.224516 11 0.270472C8.21667 0.222431 5.43274 0.322573 2.66003 0.570473C2.11185 0.670189 1.60454 0.927314 1.20003 1.31047C0.300027 2.14047 0.200027 3.56047 0.100027 4.76047C-0.045061 6.91804 -0.045061 9.08291 0.100027 11.2405C0.128957 11.9159 0.229521 12.5863 0.400027 13.2405C0.520602 13.7455 0.76455 14.2128 1.11003 14.6005C1.51729 15.0039 2.03641 15.2757 2.60003 15.3805C4.75594 15.6466 6.92824 15.7569 9.10003 15.7105C12.6 15.7605 15.67 15.7105 19.3 15.4305C19.8775 15.3321 20.4112 15.06 20.83 14.6505C21.11 14.3704 21.3191 14.0276 21.44 13.6505C21.7977 12.5531 21.9733 11.4046 21.96 10.2505C22 9.69047 22 6.31047 22 5.71047ZM8.74003 10.8505V4.66047L14.66 7.77047C13 8.69047 10.81 9.73047 8.74003 10.8505Z" fill="#053559"/>
</svg>
